<?xml version="1.0" encoding="utf-8"?>
<!-- Generator: Adobe Illustrator 24.2.0, SVG Export Plug-In . SVG Version: 6.00 Build 0)  -->
<svg version="1.1" id="Layer_1" xmlns="http://www.w3.org/2000/svg" xmlns:xlink="http://www.w3.org/1999/xlink" x="0px" y="0px"
	 viewBox="0 0 219 368" style="enable-background:new 0 0 219 368;" xml:space="preserve">
<style type="text/css">
	.st0{enable-background:new    ;}
	.st1{fill:#FFA704;}
</style>
<g>
	<g>
		<g class="st0">
			<g>
				<polygon class="st1" points="102.7,346 134.9,346 134.9,346 				"/>
			</g>
			<g>
				<polygon class="st1" points="164.3,332.9 179.7,332.9 179.7,332.9 				"/>
			</g>
			<g>
				<path class="st1" d="M179.7,332.9c1.6,0,2.9,1.4,2.7,3c-0.6,7.1-3.6,13.4-8.6,18.4c-13,13-36.1,13.4-38.8,13.4h-32.3
					c-2.3,0-4.1-1.8-4.1-4.1v-13.5c0-2.3,1.8-4.1,4.1-4.1h32.2c0.2,0,22.1-0.6,25.6-10.4c0.6-1.6,2.1-2.7,3.8-2.7L179.7,332.9
					L179.7,332.9z"/>
			</g>
		</g>
		<g class="st0">
			<g>
				<polygon class="st1" points="106.8,112.5 112.8,112.5 112.8,112.5 				"/>
			</g>
			<g>
				<path class="st1" d="M101.1,323.2c-1.6-0.9-2.4-2-2.4-3.3V117.2c0-1.3,0.8-2.4,2.4-3.3s3.5-1.4,5.7-1.4h6c2.2,0,4.1,0.5,5.7,1.4
					s2.4,2,2.4,3.3v202.7c0,1.3-0.8,2.4-2.4,3.3s-3.5,1.4-5.7,1.4h-6C104.6,324.5,102.7,324.1,101.1,323.2z"/>
			</g>
		</g>
	</g>
</g>
<g>
	<path class="st1" d="M53.5,100.8c-2.2,0-4-1.8-4-4V40c0-2.2-0.2-5.8-0.4-8c0,0-0.7-8-2.9-10.9s-3.9-3.4-3.9-3.4
		c-2.1-0.6-4.3-1-4.9-1c-0.6,0-2.8,0.5-4.9,1c0,0-1.7,0.4-3.9,3.4C26.4,24,25.7,32,25.7,32c-0.2,2.2-0.4,5.8-0.4,8v25
		c0,2.2,0.2,5.8,0.4,8c0,0,1.9,17,6.6,25.4s9.7,16.5,15.2,24.3s10.6,16,15.2,24.5c4.7,8.5,6.6,25.6,6.6,25.6c0.2,2.2,0.4,5.8,0.4,8
		V212c0,2.2-0.1,5.8-0.3,8c0,0-0.5,6.9-2.2,11.1c-1.6,4.2-3.9,7.6-6.7,10.1c-2.8,2.6-6,4.5-9.5,5.8s-6.9,1.6-6.9,1.6
		c-2.2,0.2-5.1,0.3-6.4,0.3c-1.4,0-4.3-0.2-6.4-0.4c0,0-3.1-0.3-6.8-1.6c-3.6-1.3-6.9-3.2-9.9-5.8c-2.9-2.6-5.3-6-7-10.1
		c-1.8-4.2-2.3-11.1-2.3-11.1c-0.2-2.2-0.3-5.8-0.3-8V152c0-2.2,1.8-4,4-4h10.6c2.2,0,4,1.8,4,4v56.7c0,2.2,0.2,5.8,0.4,8
		c0,0,0.8,8,3.2,10.9s4.6,3.4,4.6,3.4c2.1,0.5,4.4,0.9,4.9,0.9s2.8-0.4,4.9-0.9c0,0,2.1-0.5,4.4-3.4c2.3-2.9,3.1-10.9,3.1-10.9
		c0.2-2.2,0.4-5.8,0.4-8v-24.9c0-2.2-0.2-5.8-0.4-8c0,0-1.9-16.7-6.6-25.1c-4.7-8.4-9.7-16.5-15.2-24.3s-10.6-16-15.2-24.5
		C7.4,93.4,5.5,76,5.5,76c-0.2-2.2-0.4-5.8-0.4-8V37.3c0-2.2,0.1-5.8,0.3-8c0,0,0.6-6.9,2.3-11.1c1.8-4.2,4-7.6,6.9-10.3
		c2.8-2.7,6-4.7,9.7-6c3.6-1.3,6.8-1.6,6.8-1.6c2-0.1,4.6-0.3,5.6-0.3s3.6,0.2,5.7,0.4c0,0,3,0.3,6.6,1.6c3.5,1.3,6.7,3.3,9.5,6
		s5.1,6.1,6.9,10.3s2.3,11.1,2.3,11.1c0.2,2.2,0.3,5.8,0.3,8v59.5c0,2.2-1.8,4-4,4L53.5,100.8L53.5,100.8z"/>
</g>
<g>
	<path class="st1" d="M210,0c2.2,0,4,1.8,4,4v236.6c0,2.2-1.8,4-4,4h-12c-2.2,0-4-1.8-4-4V133.9c0-2.2-1.8-4-4-4h-15.1
		c-2.2,0-4,1.8-4,4v106.8c0,2.2-1.8,4-4,4h-12c-2.2,0-4-1.8-4-4V4c0-2.2,1.8-4,4-4h12c2.2,0,4,1.8,4,4v106.8c0,2.2,1.8,4,4,4H190
		c2.2,0,4-1.8,4-4V4c0-2.2,1.8-4,4-4H210z"/>
</g>
</svg>
