<?xml version="1.0" encoding="utf-8"?>
<!-- Generator: Adobe Illustrator 24.2.0, SVG Export Plug-In . SVG Version: 6.00 Build 0)  -->
<svg version="1.1" id="Layer_1" xmlns="http://www.w3.org/2000/svg" xmlns:xlink="http://www.w3.org/1999/xlink" x="0px" y="0px"
	 viewBox="0 0 219 368" style="enable-background:new 0 0 219 368;" xml:space="preserve">
<style type="text/css">
	.st0{enable-background:new    ;}
	.st1{fill:#FFA704;}
</style>
<g>
	<g>
		<g class="st0">
			<g>
				<rect x="102.7" y="346" class="st1" width="32.2" height="0"/>
			</g>
			<g>
				<rect x="164.3" y="332.9" class="st1" width="15.4" height="0"/>
			</g>
			<g>
				<path class="st1" d="M179.7,332.9c1.6,0,2.9,1.4,2.7,3c-0.6,7.1-3.6,13.4-8.6,18.4c-13,13-36.1,13.4-38.8,13.4h-32.3
					c-2.3,0-4.1-1.8-4.1-4.1v-13.5c0-2.3,1.8-4.1,4.1-4.1h32.2c0.2,0,22.1-0.6,25.6-10.4c0.6-1.6,2.1-2.7,3.8-2.7H179.7z"/>
			</g>
		</g>
		<g class="st0">
			<g>
				<rect x="106.8" y="112.5" class="st1" width="6" height="0"/>
			</g>
			<g>
				<path class="st1" d="M112.8,112.5c2.2,0,4.1,0.5,5.7,1.4c1.6,0.9,2.4,2,2.4,3.3v202.7c0,1.3-0.8,2.4-2.4,3.3
					c-1.6,0.9-3.5,1.4-5.7,1.4h-6c-2.2-0.1-4.1-0.5-5.7-1.4c-1.6-0.9-2.4-2-2.4-3.3V117.2c0-1.3,0.8-2.4,2.4-3.3
					c1.6-0.9,3.5-1.4,5.7-1.4H112.8z"/>
			</g>
		</g>
	</g>
</g>
<g>
	<g>
		<g class="st0">
			<g>
				<rect x="9" y="148" class="st1" width="10.6" height="0"/>
			</g>
			<g>
				<path class="st1" d="M36.7,0c1,0,3.6,0.2,5.7,0.4c0.1,0,3,0.3,6.6,1.6c3.5,1.3,6.7,3.3,9.5,6c2.8,2.7,5.1,6.1,6.9,10.3
					c1.8,4.2,2.3,10.8,2.3,11.1c0.2,2.2,0.3,5.8,0.3,8v59.5c0,2.2-1.8,4-4,4l-10.5-0.1c-2.2,0-4-1.8-4-4V40c0-2.2-0.2-5.8-0.4-8
					c0-0.4-0.7-8-2.9-10.9c-2.2-2.9-3.8-3.4-3.9-3.4c-2.1-0.6-4.3-1-4.9-1c-0.6,0-2.8,0.5-4.9,1c-0.1,0-1.7,0.4-3.9,3.4
					C26.4,24,25.7,31.6,25.7,32c-0.2,2.2-0.4,5.8-0.4,8v25c0,2.2,0.2,5.8,0.4,8c0.1,0.9,1.9,17,6.6,25.4c4.7,8.4,9.7,16.5,15.2,24.3
					c5.5,7.8,10.6,16,15.2,24.5c4.7,8.5,6.5,24.7,6.6,25.6c0.2,2.2,0.4,5.8,0.4,8V212c0,2.2-0.1,5.8-0.3,8c0,0.3-0.5,6.9-2.2,11.1
					c-1.6,4.2-3.9,7.6-6.7,10.1c-2.8,2.6-6,4.5-9.5,5.8c-3.5,1.3-6.7,1.6-6.9,1.6c-2.2,0.2-5.1,0.3-6.4,0.3c-1.4,0-4.3-0.2-6.4-0.4
					c-0.2,0-3.1-0.3-6.8-1.6c-3.6-1.3-6.9-3.2-9.9-5.8c-2.9-2.6-5.3-6-7-10.1c-1.8-4.2-2.3-10.8-2.3-11.1c-0.2-2.2-0.3-5.8-0.3-8
					V152c0-2.2,1.8-4,4-4h10.6c2.2,0,4,1.8,4,4v56.7c0,2.2,0.2,5.8,0.4,8c0,0.4,0.8,8,3.2,10.9c2.4,2.9,4.5,3.4,4.6,3.4
					c2.1,0.5,4.4,0.9,4.9,0.9c0.5,0,2.8-0.4,4.9-0.9c0.1,0,2.1-0.5,4.4-3.4c2.3-2.9,3.1-10.5,3.1-10.9c0.2-2.2,0.4-5.8,0.4-8v-24.9
					c0-2.2-0.2-5.8-0.4-8c-0.1-0.8-1.9-16.7-6.6-25.1c-4.7-8.4-9.7-16.5-15.2-24.3c-5.5-7.8-10.6-16-15.2-24.5
					c-4.7-8.5-6.5-25-6.6-25.9c-0.2-2.2-0.4-5.8-0.4-8V37.3c0-2.2,0.1-5.8,0.3-8c0-0.3,0.6-6.9,2.3-11.1c1.8-4.2,4-7.6,6.9-10.3
					c2.8-2.7,6-4.7,9.7-6c3.6-1.3,6.6-1.6,6.8-1.6C33.1,0.2,35.7,0,36.7,0z"/>
			</g>
		</g>
	</g>
</g>
<g>
	<g>
		<g class="st0">
			<g>
				<rect x="174.9" y="114.8" class="st1" width="15.1" height="0"/>
			</g>
			<g>
				<rect x="154.9" y="0" class="st1" width="12" height="0"/>
			</g>
			<g>
				<rect x="198" y="0" class="st1" width="12" height="0"/>
			</g>
			<g>
				<path class="st1" d="M210,0c2.2,0,4,1.8,4,4v236.6c0,2.2-1.8,4-4,4h-12c-2.2,0-4-1.8-4-4V133.9c0-2.2-1.8-4-4-4h-15.1
					c-2.2,0-4,1.8-4,4v106.8c0,2.2-1.8,4-4,4h-12c-2.2,0-4-1.8-4-4V4c0-2.2,1.8-4,4-4h12c2.2,0,4,1.8,4,4v106.8c0,2.2,1.8,4,4,4H190
					c2.2,0,4-1.8,4-4V4c0-2.2,1.8-4,4-4H210z"/>
			</g>
		</g>
	</g>
</g>
</svg>
