<svg id="Layer_1" data-name="Layer 1" xmlns="http://www.w3.org/2000/svg" viewBox="0 0 209 367.7"><defs><style>.cls-1{fill:#122A5B;}</style></defs><polygon class="cls-1" points="97.7 346 129.9 346 129.9 346 97.7 346"/><polygon class="cls-1" points="159.3 332.9 174.7 332.9 174.7 332.9 159.3 332.9"/><path class="cls-1" d="M174.7,332.9a2.72,2.72,0,0,1,2.72,2.7c0,.1,0,.2,0,.3a29.14,29.14,0,0,1-8.6,18.4c-13,13-36.1,13.4-38.8,13.4H97.7a4.06,4.06,0,0,1-4.1-4V350.1a4.06,4.06,0,0,1,4-4.1H129.9c.2,0,22.1-.6,25.6-10.4a4.09,4.09,0,0,1,3.8-2.7Z" transform="translate(0)"/><polygon class="cls-1" points="101.8 112.5 107.8 112.5 107.8 112.5 101.8 112.5"/><path class="cls-1" d="M96.1,323.2q-2.4-1.35-2.4-3.3V117.2q0-2,2.4-3.3a11.46,11.46,0,0,1,5.7-1.4h6a11.46,11.46,0,0,1,5.7,1.4q2.4,1.35,2.4,3.3V319.9q0,2-2.4,3.3a11.46,11.46,0,0,1-5.7,1.4h-6A12.57,12.57,0,0,1,96.1,323.2Z" transform="translate(0)"/><path class="cls-1" d="M48.5,100.8a4,4,0,0,1-4-4V40c0-2.2-.2-5.8-.4-8,0,0-.7-8-2.9-10.9s-3.9-3.4-3.9-3.4a27.31,27.31,0,0,0-4.9-1,40.91,40.91,0,0,0-4.9,1s-1.7.4-3.9,3.4S20.7,32,20.7,32c-.2,2.2-.4,5.8-.4,8V65c0,2.2.2,5.8.4,8,0,0,1.9,17,6.6,25.4a273.57,273.57,0,0,0,15.2,24.3,245,245,0,0,1,15.2,24.5c4.7,8.5,6.6,25.6,6.6,25.6.2,2.2.4,5.8.4,8V212c0,2.2-.1,5.8-.3,8,0,0-.5,6.9-2.2,11.1a25.51,25.51,0,0,1-6.7,10.1A28.4,28.4,0,0,1,46,247a29.7,29.7,0,0,1-6.9,1.6c-2.2.2-5.1.3-6.4.3s-4.3-.2-6.4-.4a32.34,32.34,0,0,1-6.8-1.6,31.06,31.06,0,0,1-9.9-5.8,27.71,27.71,0,0,1-7-10.1C.8,226.8.3,219.9.3,219.9c-.2-2.2-.3-5.8-.3-8V152a4,4,0,0,1,4-4H14.6a4,4,0,0,1,4,4v56.7c0,2.2.2,5.8.4,8,0,0,.8,8,3.2,10.9s4.6,3.4,4.6,3.4a37,37,0,0,0,4.9.9,37,37,0,0,0,4.9-.9s2.1-.5,4.4-3.4,3.1-10.9,3.1-10.9c.2-2.2.4-5.8.4-8V183.8c0-2.2-.2-5.8-.4-8,0,0-1.9-16.7-6.6-25.1a273.57,273.57,0,0,0-15.2-24.3A245,245,0,0,1,7.1,101.9C2.4,93.4.5,76,.5,76,.3,73.8.1,70.2.1,68V37.3c0-2.2.1-5.8.3-8,0,0,.6-6.9,2.3-11.1A29.7,29.7,0,0,1,9.6,7.9a26.48,26.48,0,0,1,9.7-6A30.58,30.58,0,0,1,26.1.3c2-.1,4.6-.3,5.6-.3s3.6.2,5.7.4A30.57,30.57,0,0,1,44,2a27.28,27.28,0,0,1,9.5,6,31,31,0,0,1,6.9,10.3c1.8,4.2,2.3,11.1,2.3,11.1.2,2.2.3,5.8.3,8V96.9a4,4,0,0,1-4,4H48.5Z" transform="translate(0)"/><path class="cls-1" d="M205,0a4,4,0,0,1,4,4V240.6a4,4,0,0,1-4,4H193a4,4,0,0,1-4-4V133.9a4,4,0,0,0-4-4H169.9a4,4,0,0,0-4,4V240.7a4,4,0,0,1-4,4h-12a4,4,0,0,1-4-4V4a4,4,0,0,1,4-4h12a4,4,0,0,1,4,4V110.8a4,4,0,0,0,4,4H185a4,4,0,0,0,4-4V4a4,4,0,0,1,4-4Z" transform="translate(0)"/></svg>